<mxfile host="app.diagrams.net" modified="2023-07-26T22:36:19.682Z" agent="Mozilla/5.0 (Macintosh; Intel Mac OS X 10_15_7) AppleWebKit/537.36 (KHTML, like Gecko) Chrome/114.0.0.0 Safari/537.36" etag="vE9j6JRYDyjMHKG-P37a" version="21.6.5" type="google">
  <diagram id="R2lEEEUBdFMjLlhIrx00" name="Page-1">
    <mxGraphModel grid="1" page="1" gridSize="10" guides="1" tooltips="1" connect="1" arrows="1" fold="1" pageScale="1" pageWidth="850" pageHeight="1100" math="0" shadow="0" extFonts="Permanent Marker^https://fonts.googleapis.com/css?family=Permanent+Marker">
      <root>
        <mxCell id="0" />
        <mxCell id="1" parent="0" />
        <mxCell id="oq4vCedvPrNpb1nhvZyE-19" style="edgeStyle=orthogonalEdgeStyle;rounded=0;orthogonalLoop=1;jettySize=auto;html=1;exitX=0;exitY=1;exitDx=0;exitDy=0;entryX=0;entryY=0.75;entryDx=0;entryDy=0;" edge="1" parent="1" source="oq4vCedvPrNpb1nhvZyE-1" target="oq4vCedvPrNpb1nhvZyE-13">
          <mxGeometry relative="1" as="geometry" />
        </mxCell>
        <mxCell id="oq4vCedvPrNpb1nhvZyE-20" style="edgeStyle=orthogonalEdgeStyle;rounded=0;orthogonalLoop=1;jettySize=auto;html=1;exitX=0;exitY=1;exitDx=0;exitDy=0;entryX=0;entryY=0.5;entryDx=0;entryDy=0;" edge="1" parent="1" source="oq4vCedvPrNpb1nhvZyE-1" target="oq4vCedvPrNpb1nhvZyE-11">
          <mxGeometry relative="1" as="geometry" />
        </mxCell>
        <mxCell id="oq4vCedvPrNpb1nhvZyE-21" style="edgeStyle=orthogonalEdgeStyle;rounded=0;orthogonalLoop=1;jettySize=auto;html=1;exitX=0;exitY=1;exitDx=0;exitDy=0;entryX=0;entryY=0.5;entryDx=0;entryDy=0;" edge="1" parent="1" source="oq4vCedvPrNpb1nhvZyE-1" target="oq4vCedvPrNpb1nhvZyE-10">
          <mxGeometry relative="1" as="geometry" />
        </mxCell>
        <mxCell id="oq4vCedvPrNpb1nhvZyE-22" style="edgeStyle=orthogonalEdgeStyle;rounded=0;orthogonalLoop=1;jettySize=auto;html=1;exitX=0;exitY=1;exitDx=0;exitDy=0;entryX=0;entryY=0.5;entryDx=0;entryDy=0;" edge="1" parent="1" source="oq4vCedvPrNpb1nhvZyE-1" target="oq4vCedvPrNpb1nhvZyE-9">
          <mxGeometry relative="1" as="geometry" />
        </mxCell>
        <mxCell id="oq4vCedvPrNpb1nhvZyE-24" style="edgeStyle=orthogonalEdgeStyle;rounded=0;orthogonalLoop=1;jettySize=auto;html=1;exitX=0;exitY=1;exitDx=0;exitDy=0;entryX=0;entryY=0.5;entryDx=0;entryDy=0;" edge="1" parent="1" source="oq4vCedvPrNpb1nhvZyE-1" target="oq4vCedvPrNpb1nhvZyE-6">
          <mxGeometry relative="1" as="geometry" />
        </mxCell>
        <mxCell id="oq4vCedvPrNpb1nhvZyE-25" style="edgeStyle=orthogonalEdgeStyle;rounded=0;orthogonalLoop=1;jettySize=auto;html=1;exitX=0;exitY=1;exitDx=0;exitDy=0;entryX=0;entryY=0.5;entryDx=0;entryDy=0;" edge="1" parent="1" source="oq4vCedvPrNpb1nhvZyE-1" target="oq4vCedvPrNpb1nhvZyE-5">
          <mxGeometry relative="1" as="geometry" />
        </mxCell>
        <mxCell id="oq4vCedvPrNpb1nhvZyE-27" style="edgeStyle=orthogonalEdgeStyle;rounded=0;orthogonalLoop=1;jettySize=auto;html=1;exitX=0;exitY=1;exitDx=0;exitDy=0;entryX=0;entryY=0.5;entryDx=0;entryDy=0;" edge="1" parent="1" source="oq4vCedvPrNpb1nhvZyE-1" target="oq4vCedvPrNpb1nhvZyE-4">
          <mxGeometry relative="1" as="geometry">
            <Array as="points">
              <mxPoint x="-9.97" y="320" />
            </Array>
          </mxGeometry>
        </mxCell>
        <mxCell id="oq4vCedvPrNpb1nhvZyE-183" style="edgeStyle=entityRelationEdgeStyle;rounded=0;orthogonalLoop=1;jettySize=auto;html=1;exitX=1;exitY=0.5;exitDx=0;exitDy=0;" edge="1" parent="1" source="oq4vCedvPrNpb1nhvZyE-1" target="oq4vCedvPrNpb1nhvZyE-174">
          <mxGeometry relative="1" as="geometry" />
        </mxCell>
        <mxCell id="oq4vCedvPrNpb1nhvZyE-184" style="edgeStyle=entityRelationEdgeStyle;rounded=0;orthogonalLoop=1;jettySize=auto;html=1;exitX=1;exitY=0.5;exitDx=0;exitDy=0;entryX=0;entryY=0.5;entryDx=0;entryDy=0;" edge="1" parent="1" source="oq4vCedvPrNpb1nhvZyE-1" target="oq4vCedvPrNpb1nhvZyE-177">
          <mxGeometry relative="1" as="geometry" />
        </mxCell>
        <mxCell id="oq4vCedvPrNpb1nhvZyE-185" style="edgeStyle=entityRelationEdgeStyle;rounded=0;orthogonalLoop=1;jettySize=auto;html=1;exitX=1;exitY=0.5;exitDx=0;exitDy=0;" edge="1" parent="1" source="oq4vCedvPrNpb1nhvZyE-1" target="oq4vCedvPrNpb1nhvZyE-178">
          <mxGeometry relative="1" as="geometry" />
        </mxCell>
        <mxCell id="wNgP6TOCzT_EryLEcdGj-14" style="edgeStyle=orthogonalEdgeStyle;rounded=0;orthogonalLoop=1;jettySize=auto;html=1;exitX=0;exitY=1;exitDx=0;exitDy=0;entryX=0;entryY=0.5;entryDx=0;entryDy=0;" edge="1" parent="1" source="oq4vCedvPrNpb1nhvZyE-1" target="oq4vCedvPrNpb1nhvZyE-14">
          <mxGeometry relative="1" as="geometry" />
        </mxCell>
        <mxCell id="wNgP6TOCzT_EryLEcdGj-15" style="edgeStyle=orthogonalEdgeStyle;rounded=0;orthogonalLoop=1;jettySize=auto;html=1;exitX=0;exitY=1;exitDx=0;exitDy=0;entryX=0;entryY=0.5;entryDx=0;entryDy=0;" edge="1" parent="1" source="oq4vCedvPrNpb1nhvZyE-1" target="wNgP6TOCzT_EryLEcdGj-13">
          <mxGeometry relative="1" as="geometry" />
        </mxCell>
        <mxCell id="wNgP6TOCzT_EryLEcdGj-22" style="edgeStyle=orthogonalEdgeStyle;rounded=0;orthogonalLoop=1;jettySize=auto;html=1;exitX=0;exitY=1;exitDx=0;exitDy=0;entryX=0;entryY=0.5;entryDx=0;entryDy=0;" edge="1" parent="1" source="oq4vCedvPrNpb1nhvZyE-1" target="wNgP6TOCzT_EryLEcdGj-12">
          <mxGeometry relative="1" as="geometry">
            <mxPoint x="20" y="520" as="targetPoint" />
            <Array as="points">
              <mxPoint x="-10" y="510" />
            </Array>
          </mxGeometry>
        </mxCell>
        <mxCell id="oq4vCedvPrNpb1nhvZyE-1" value="CASO" style="rounded=0;whiteSpace=wrap;html=1;" vertex="1" parent="1">
          <mxGeometry x="-9.97" y="270" width="120" height="30" as="geometry" />
        </mxCell>
        <mxCell id="oq4vCedvPrNpb1nhvZyE-4" value="&lt;font style=&quot;font-size: 8px;&quot;&gt;Id_Case&lt;/font&gt;" style="rounded=1;whiteSpace=wrap;html=1;" vertex="1" parent="1">
          <mxGeometry x="20.03" y="310" width="80" height="20" as="geometry" />
        </mxCell>
        <mxCell id="oq4vCedvPrNpb1nhvZyE-5" value="&lt;font style=&quot;font-size: 8px;&quot;&gt;Id_date&lt;/font&gt;" style="rounded=1;whiteSpace=wrap;html=1;" vertex="1" parent="1">
          <mxGeometry x="20.03" y="340" width="80" height="20" as="geometry" />
        </mxCell>
        <mxCell id="oq4vCedvPrNpb1nhvZyE-6" value="&lt;font style=&quot;font-size: 8px;&quot;&gt;Id_name_shotter&lt;/font&gt;" style="rounded=1;whiteSpace=wrap;html=1;" vertex="1" parent="1">
          <mxGeometry x="20.03" y="370" width="80" height="20" as="geometry" />
        </mxCell>
        <mxCell id="oq4vCedvPrNpb1nhvZyE-9" value="&lt;font style=&quot;font-size: 8px;&quot;&gt;Id_type_of_shooting&lt;/font&gt;" style="rounded=1;whiteSpace=wrap;html=1;" vertex="1" parent="1">
          <mxGeometry x="20.03" y="405" width="80" height="20" as="geometry" />
        </mxCell>
        <mxCell id="oq4vCedvPrNpb1nhvZyE-10" value="&lt;font style=&quot;font-size: 8px;&quot;&gt;City&lt;/font&gt;" style="rounded=1;whiteSpace=wrap;html=1;" vertex="1" parent="1">
          <mxGeometry x="20.03" y="440" width="80" height="20" as="geometry" />
        </mxCell>
        <mxCell id="oq4vCedvPrNpb1nhvZyE-11" value="&lt;font style=&quot;font-size: 8px;&quot;&gt;State&lt;/font&gt;" style="rounded=1;whiteSpace=wrap;html=1;" vertex="1" parent="1">
          <mxGeometry x="20.03" y="470" width="80" height="20" as="geometry" />
        </mxCell>
        <mxCell id="oq4vCedvPrNpb1nhvZyE-13" value="&lt;font style=&quot;font-size: 8px;&quot;&gt;Summary&lt;/font&gt;" style="rounded=1;whiteSpace=wrap;html=1;" vertex="1" parent="1">
          <mxGeometry x="20.03" y="530" width="80" height="20" as="geometry" />
        </mxCell>
        <mxCell id="oq4vCedvPrNpb1nhvZyE-14" value="&lt;font style=&quot;font-size: 8px;&quot;&gt;Description&lt;/font&gt;" style="rounded=1;whiteSpace=wrap;html=1;" vertex="1" parent="1">
          <mxGeometry x="20" y="565" width="80.03" height="20" as="geometry" />
        </mxCell>
        <mxCell id="oq4vCedvPrNpb1nhvZyE-39" style="edgeStyle=orthogonalEdgeStyle;rounded=0;orthogonalLoop=1;jettySize=auto;html=1;exitX=0;exitY=1;exitDx=0;exitDy=0;entryX=0;entryY=0.5;entryDx=0;entryDy=0;" edge="1" parent="1" source="oq4vCedvPrNpb1nhvZyE-30" target="oq4vCedvPrNpb1nhvZyE-38">
          <mxGeometry relative="1" as="geometry">
            <Array as="points">
              <mxPoint x="420" y="205" />
            </Array>
          </mxGeometry>
        </mxCell>
        <mxCell id="oq4vCedvPrNpb1nhvZyE-40" style="edgeStyle=orthogonalEdgeStyle;rounded=0;orthogonalLoop=1;jettySize=auto;html=1;exitX=0;exitY=1;exitDx=0;exitDy=0;entryX=0;entryY=0.5;entryDx=0;entryDy=0;" edge="1" parent="1" source="oq4vCedvPrNpb1nhvZyE-30" target="oq4vCedvPrNpb1nhvZyE-31">
          <mxGeometry relative="1" as="geometry">
            <Array as="points">
              <mxPoint x="420" y="65" />
            </Array>
          </mxGeometry>
        </mxCell>
        <mxCell id="oq4vCedvPrNpb1nhvZyE-41" style="edgeStyle=orthogonalEdgeStyle;rounded=0;orthogonalLoop=1;jettySize=auto;html=1;exitX=0;exitY=1;exitDx=0;exitDy=0;entryX=0;entryY=0.5;entryDx=0;entryDy=0;" edge="1" parent="1" source="oq4vCedvPrNpb1nhvZyE-30" target="oq4vCedvPrNpb1nhvZyE-32">
          <mxGeometry relative="1" as="geometry">
            <Array as="points">
              <mxPoint x="420" y="85" />
            </Array>
          </mxGeometry>
        </mxCell>
        <mxCell id="oq4vCedvPrNpb1nhvZyE-42" style="edgeStyle=orthogonalEdgeStyle;rounded=0;orthogonalLoop=1;jettySize=auto;html=1;exitX=0;exitY=1;exitDx=0;exitDy=0;entryX=0;entryY=0.5;entryDx=0;entryDy=0;" edge="1" parent="1" source="oq4vCedvPrNpb1nhvZyE-30" target="oq4vCedvPrNpb1nhvZyE-33">
          <mxGeometry relative="1" as="geometry">
            <Array as="points">
              <mxPoint x="420" y="105" />
            </Array>
          </mxGeometry>
        </mxCell>
        <mxCell id="oq4vCedvPrNpb1nhvZyE-43" style="edgeStyle=orthogonalEdgeStyle;rounded=0;orthogonalLoop=1;jettySize=auto;html=1;exitX=0;exitY=1;exitDx=0;exitDy=0;entryX=0;entryY=0.5;entryDx=0;entryDy=0;" edge="1" parent="1" source="oq4vCedvPrNpb1nhvZyE-30" target="oq4vCedvPrNpb1nhvZyE-34">
          <mxGeometry relative="1" as="geometry">
            <Array as="points">
              <mxPoint x="420" y="125" />
            </Array>
          </mxGeometry>
        </mxCell>
        <mxCell id="oq4vCedvPrNpb1nhvZyE-44" style="edgeStyle=orthogonalEdgeStyle;rounded=0;orthogonalLoop=1;jettySize=auto;html=1;exitX=0;exitY=1;exitDx=0;exitDy=0;entryX=0;entryY=0.5;entryDx=0;entryDy=0;" edge="1" parent="1" source="oq4vCedvPrNpb1nhvZyE-30" target="oq4vCedvPrNpb1nhvZyE-35">
          <mxGeometry relative="1" as="geometry">
            <Array as="points">
              <mxPoint x="420" y="145" />
            </Array>
          </mxGeometry>
        </mxCell>
        <mxCell id="oq4vCedvPrNpb1nhvZyE-45" style="edgeStyle=orthogonalEdgeStyle;rounded=0;orthogonalLoop=1;jettySize=auto;html=1;exitX=0;exitY=1;exitDx=0;exitDy=0;entryX=0;entryY=0.5;entryDx=0;entryDy=0;" edge="1" parent="1" source="oq4vCedvPrNpb1nhvZyE-30" target="oq4vCedvPrNpb1nhvZyE-36">
          <mxGeometry relative="1" as="geometry">
            <Array as="points">
              <mxPoint x="420" y="165" />
            </Array>
          </mxGeometry>
        </mxCell>
        <mxCell id="oq4vCedvPrNpb1nhvZyE-46" style="edgeStyle=orthogonalEdgeStyle;rounded=0;orthogonalLoop=1;jettySize=auto;html=1;exitX=0;exitY=1;exitDx=0;exitDy=0;entryX=0;entryY=0.5;entryDx=0;entryDy=0;" edge="1" parent="1" source="oq4vCedvPrNpb1nhvZyE-30" target="oq4vCedvPrNpb1nhvZyE-37">
          <mxGeometry relative="1" as="geometry">
            <Array as="points">
              <mxPoint x="420" y="185" />
            </Array>
          </mxGeometry>
        </mxCell>
        <mxCell id="wNgP6TOCzT_EryLEcdGj-5" style="edgeStyle=orthogonalEdgeStyle;rounded=0;orthogonalLoop=1;jettySize=auto;html=1;exitX=0;exitY=1;exitDx=0;exitDy=0;entryX=0;entryY=0.5;entryDx=0;entryDy=0;" edge="1" parent="1" source="oq4vCedvPrNpb1nhvZyE-30" target="wNgP6TOCzT_EryLEcdGj-2">
          <mxGeometry relative="1" as="geometry">
            <Array as="points">
              <mxPoint x="420" y="225" />
            </Array>
          </mxGeometry>
        </mxCell>
        <mxCell id="wNgP6TOCzT_EryLEcdGj-7" style="edgeStyle=orthogonalEdgeStyle;rounded=0;orthogonalLoop=1;jettySize=auto;html=1;exitX=0;exitY=1;exitDx=0;exitDy=0;entryX=0;entryY=0.75;entryDx=0;entryDy=0;" edge="1" parent="1" source="oq4vCedvPrNpb1nhvZyE-30" target="wNgP6TOCzT_EryLEcdGj-3">
          <mxGeometry relative="1" as="geometry">
            <Array as="points">
              <mxPoint x="420" y="248" />
              <mxPoint x="430" y="248" />
            </Array>
          </mxGeometry>
        </mxCell>
        <mxCell id="oq4vCedvPrNpb1nhvZyE-30" value="Calendario" style="rounded=0;whiteSpace=wrap;html=1;" vertex="1" parent="1">
          <mxGeometry x="420" y="20" width="80" height="30" as="geometry" />
        </mxCell>
        <mxCell id="oq4vCedvPrNpb1nhvZyE-31" value="&lt;font style=&quot;font-size: 8px;&quot;&gt;Id_date&lt;/font&gt;" style="rounded=1;whiteSpace=wrap;html=1;fontStyle=0;fontSize=8;" vertex="1" parent="1">
          <mxGeometry x="430" y="60" width="60" height="10" as="geometry" />
        </mxCell>
        <mxCell id="oq4vCedvPrNpb1nhvZyE-32" value="&lt;font style=&quot;font-size: 8px;&quot;&gt;Id_Case&lt;/font&gt;" style="rounded=1;whiteSpace=wrap;html=1;fontStyle=0;fontSize=8;" vertex="1" parent="1">
          <mxGeometry x="430" y="80" width="60" height="10" as="geometry" />
        </mxCell>
        <mxCell id="oq4vCedvPrNpb1nhvZyE-33" value="Year" style="rounded=1;whiteSpace=wrap;html=1;fontStyle=0;fontSize=8;" vertex="1" parent="1">
          <mxGeometry x="430" y="100" width="60" height="10" as="geometry" />
        </mxCell>
        <mxCell id="oq4vCedvPrNpb1nhvZyE-34" value="Quarter" style="rounded=1;whiteSpace=wrap;html=1;fontStyle=0;fontSize=8;" vertex="1" parent="1">
          <mxGeometry x="430" y="120" width="60" height="10" as="geometry" />
        </mxCell>
        <mxCell id="oq4vCedvPrNpb1nhvZyE-35" value="Half" style="rounded=1;whiteSpace=wrap;html=1;fontStyle=0;fontSize=8;" vertex="1" parent="1">
          <mxGeometry x="430" y="140" width="60" height="10" as="geometry" />
        </mxCell>
        <mxCell id="oq4vCedvPrNpb1nhvZyE-36" value="Month_name" style="rounded=1;whiteSpace=wrap;html=1;fontStyle=0;fontSize=8;" vertex="1" parent="1">
          <mxGeometry x="430" y="160" width="60" height="10" as="geometry" />
        </mxCell>
        <mxCell id="oq4vCedvPrNpb1nhvZyE-37" value="Day_of_week" style="rounded=1;whiteSpace=wrap;html=1;fontStyle=0;fontSize=8;" vertex="1" parent="1">
          <mxGeometry x="430" y="180" width="60" height="10" as="geometry" />
        </mxCell>
        <mxCell id="oq4vCedvPrNpb1nhvZyE-38" value="Day_of_week_number" style="rounded=1;whiteSpace=wrap;html=1;fontStyle=0;fontSize=8;" vertex="1" parent="1">
          <mxGeometry x="430" y="200" width="90" height="10" as="geometry" />
        </mxCell>
        <mxCell id="oq4vCedvPrNpb1nhvZyE-84" style="edgeStyle=orthogonalEdgeStyle;rounded=0;orthogonalLoop=1;jettySize=auto;html=1;exitX=0;exitY=1;exitDx=0;exitDy=0;entryX=0;entryY=0.5;entryDx=0;entryDy=0;" edge="1" parent="1" source="oq4vCedvPrNpb1nhvZyE-91" target="oq4vCedvPrNpb1nhvZyE-92">
          <mxGeometry relative="1" as="geometry">
            <Array as="points">
              <mxPoint x="420" y="315" />
            </Array>
          </mxGeometry>
        </mxCell>
        <mxCell id="oq4vCedvPrNpb1nhvZyE-85" style="edgeStyle=orthogonalEdgeStyle;rounded=0;orthogonalLoop=1;jettySize=auto;html=1;exitX=0;exitY=1;exitDx=0;exitDy=0;entryX=0;entryY=0.5;entryDx=0;entryDy=0;" edge="1" parent="1" source="oq4vCedvPrNpb1nhvZyE-91" target="oq4vCedvPrNpb1nhvZyE-93">
          <mxGeometry relative="1" as="geometry">
            <Array as="points">
              <mxPoint x="420" y="335" />
            </Array>
          </mxGeometry>
        </mxCell>
        <mxCell id="oq4vCedvPrNpb1nhvZyE-87" style="edgeStyle=orthogonalEdgeStyle;rounded=0;orthogonalLoop=1;jettySize=auto;html=1;exitX=0;exitY=1;exitDx=0;exitDy=0;entryX=0;entryY=0.5;entryDx=0;entryDy=0;" edge="1" parent="1" source="oq4vCedvPrNpb1nhvZyE-91" target="oq4vCedvPrNpb1nhvZyE-95">
          <mxGeometry relative="1" as="geometry">
            <Array as="points">
              <mxPoint x="420" y="355" />
            </Array>
          </mxGeometry>
        </mxCell>
        <mxCell id="oq4vCedvPrNpb1nhvZyE-88" style="edgeStyle=orthogonalEdgeStyle;rounded=0;orthogonalLoop=1;jettySize=auto;html=1;exitX=0;exitY=1;exitDx=0;exitDy=0;entryX=0;entryY=0.5;entryDx=0;entryDy=0;" edge="1" parent="1" source="oq4vCedvPrNpb1nhvZyE-91" target="oq4vCedvPrNpb1nhvZyE-96">
          <mxGeometry relative="1" as="geometry">
            <Array as="points">
              <mxPoint x="420" y="375" />
            </Array>
          </mxGeometry>
        </mxCell>
        <mxCell id="oq4vCedvPrNpb1nhvZyE-89" style="edgeStyle=orthogonalEdgeStyle;rounded=0;orthogonalLoop=1;jettySize=auto;html=1;exitX=0;exitY=1;exitDx=0;exitDy=0;entryX=0;entryY=0.5;entryDx=0;entryDy=0;" edge="1" parent="1" source="oq4vCedvPrNpb1nhvZyE-91" target="oq4vCedvPrNpb1nhvZyE-97">
          <mxGeometry relative="1" as="geometry">
            <Array as="points">
              <mxPoint x="420" y="395" />
            </Array>
          </mxGeometry>
        </mxCell>
        <mxCell id="oq4vCedvPrNpb1nhvZyE-191" style="edgeStyle=entityRelationEdgeStyle;rounded=0;orthogonalLoop=1;jettySize=auto;html=1;exitX=1;exitY=0.5;exitDx=0;exitDy=0;" edge="1" parent="1" source="oq4vCedvPrNpb1nhvZyE-192" target="oq4vCedvPrNpb1nhvZyE-140">
          <mxGeometry relative="1" as="geometry" />
        </mxCell>
        <mxCell id="vUhNqITy9zhczKVvK8hL-4" style="edgeStyle=orthogonalEdgeStyle;rounded=0;orthogonalLoop=1;jettySize=auto;html=1;exitX=0;exitY=1;exitDx=0;exitDy=0;entryX=0;entryY=0.5;entryDx=0;entryDy=0;" edge="1" parent="1" source="oq4vCedvPrNpb1nhvZyE-91" target="oq4vCedvPrNpb1nhvZyE-129">
          <mxGeometry relative="1" as="geometry">
            <Array as="points">
              <mxPoint x="420" y="475" />
            </Array>
          </mxGeometry>
        </mxCell>
        <mxCell id="vUhNqITy9zhczKVvK8hL-5" style="edgeStyle=orthogonalEdgeStyle;rounded=0;orthogonalLoop=1;jettySize=auto;html=1;exitX=0;exitY=1;exitDx=0;exitDy=0;entryX=0;entryY=0.5;entryDx=0;entryDy=0;" edge="1" parent="1" source="oq4vCedvPrNpb1nhvZyE-91" target="oq4vCedvPrNpb1nhvZyE-128">
          <mxGeometry relative="1" as="geometry">
            <Array as="points">
              <mxPoint x="420" y="455" />
            </Array>
          </mxGeometry>
        </mxCell>
        <mxCell id="wNgP6TOCzT_EryLEcdGj-18" style="edgeStyle=orthogonalEdgeStyle;rounded=0;orthogonalLoop=1;jettySize=auto;html=1;exitX=0;exitY=1;exitDx=0;exitDy=0;entryX=0;entryY=0.5;entryDx=0;entryDy=0;" edge="1" parent="1" source="oq4vCedvPrNpb1nhvZyE-91" target="oq4vCedvPrNpb1nhvZyE-127">
          <mxGeometry relative="1" as="geometry">
            <Array as="points">
              <mxPoint x="420" y="435" />
            </Array>
          </mxGeometry>
        </mxCell>
        <mxCell id="wNgP6TOCzT_EryLEcdGj-19" style="edgeStyle=orthogonalEdgeStyle;rounded=0;orthogonalLoop=1;jettySize=auto;html=1;exitX=0;exitY=1;exitDx=0;exitDy=0;entryX=0;entryY=0.75;entryDx=0;entryDy=0;" edge="1" parent="1" source="oq4vCedvPrNpb1nhvZyE-91" target="oq4vCedvPrNpb1nhvZyE-124">
          <mxGeometry relative="1" as="geometry">
            <Array as="points">
              <mxPoint x="420" y="418" />
            </Array>
          </mxGeometry>
        </mxCell>
        <mxCell id="oq4vCedvPrNpb1nhvZyE-91" value="ATACANTE" style="rounded=0;whiteSpace=wrap;html=1;" vertex="1" parent="1">
          <mxGeometry x="420" y="270" width="85" height="30" as="geometry" />
        </mxCell>
        <mxCell id="oq4vCedvPrNpb1nhvZyE-92" value="Id_name_shotter" style="rounded=1;whiteSpace=wrap;html=1;fontStyle=0;fontSize=7;" vertex="1" parent="1">
          <mxGeometry x="430" y="310" width="60" height="10" as="geometry" />
        </mxCell>
        <mxCell id="oq4vCedvPrNpb1nhvZyE-93" value="Id_Case" style="rounded=1;whiteSpace=wrap;html=1;fontStyle=0;fontSize=7;" vertex="1" parent="1">
          <mxGeometry x="430" y="330" width="60" height="10" as="geometry" />
        </mxCell>
        <mxCell id="oq4vCedvPrNpb1nhvZyE-95" value="Id_gender" style="rounded=1;whiteSpace=wrap;html=1;fontStyle=0;fontSize=7;" vertex="1" parent="1">
          <mxGeometry x="432.5" y="350" width="60" height="10" as="geometry" />
        </mxCell>
        <mxCell id="oq4vCedvPrNpb1nhvZyE-96" value="Prior_signs_mental_health_issues" style="rounded=1;whiteSpace=wrap;html=1;fontStyle=0;fontSize=7;" vertex="1" parent="1">
          <mxGeometry x="430" y="370" width="115" height="10" as="geometry" />
        </mxCell>
        <mxCell id="oq4vCedvPrNpb1nhvZyE-97" value="Mental_health_details" style="rounded=1;whiteSpace=wrap;html=1;fontStyle=0;fontSize=7;" vertex="1" parent="1">
          <mxGeometry x="430" y="390" width="95" height="10" as="geometry" />
        </mxCell>
        <mxCell id="oq4vCedvPrNpb1nhvZyE-124" value="Weapons_obtained_legally" style="rounded=1;whiteSpace=wrap;html=1;fontStyle=0;fontSize=7;" vertex="1" parent="1">
          <mxGeometry x="430" y="410" width="105" height="10" as="geometry" />
        </mxCell>
        <mxCell id="oq4vCedvPrNpb1nhvZyE-127" value="Where_obtained" style="rounded=1;whiteSpace=wrap;html=1;fontStyle=0;fontSize=7;" vertex="1" parent="1">
          <mxGeometry x="432.5" y="430" width="60" height="10" as="geometry" />
        </mxCell>
        <mxCell id="oq4vCedvPrNpb1nhvZyE-128" value="Weapon_type" style="rounded=1;whiteSpace=wrap;html=1;fontStyle=0;fontSize=7;" vertex="1" parent="1">
          <mxGeometry x="432.5" y="450" width="65" height="10" as="geometry" />
        </mxCell>
        <mxCell id="oq4vCedvPrNpb1nhvZyE-129" value="Weapon_details" style="rounded=1;whiteSpace=wrap;html=1;fontStyle=0;fontSize=7;" vertex="1" parent="1">
          <mxGeometry x="432.5" y="470" width="65" height="10" as="geometry" />
        </mxCell>
        <mxCell id="oq4vCedvPrNpb1nhvZyE-134" style="edgeStyle=orthogonalEdgeStyle;rounded=0;orthogonalLoop=1;jettySize=auto;html=1;exitX=0;exitY=1;exitDx=0;exitDy=0;entryX=0;entryY=0.5;entryDx=0;entryDy=0;" edge="1" parent="1" source="oq4vCedvPrNpb1nhvZyE-140" target="oq4vCedvPrNpb1nhvZyE-141">
          <mxGeometry relative="1" as="geometry">
            <Array as="points">
              <mxPoint x="660" y="315" />
            </Array>
          </mxGeometry>
        </mxCell>
        <mxCell id="oq4vCedvPrNpb1nhvZyE-135" style="edgeStyle=orthogonalEdgeStyle;rounded=0;orthogonalLoop=1;jettySize=auto;html=1;exitX=0;exitY=1;exitDx=0;exitDy=0;entryX=0;entryY=0.5;entryDx=0;entryDy=0;" edge="1" parent="1" source="oq4vCedvPrNpb1nhvZyE-140">
          <mxGeometry relative="1" as="geometry">
            <Array as="points">
              <mxPoint x="660" y="335" />
            </Array>
            <mxPoint x="670" y="335" as="targetPoint" />
          </mxGeometry>
        </mxCell>
        <mxCell id="oq4vCedvPrNpb1nhvZyE-137" style="edgeStyle=orthogonalEdgeStyle;rounded=0;orthogonalLoop=1;jettySize=auto;html=1;exitX=0;exitY=1;exitDx=0;exitDy=0;entryX=0;entryY=0.5;entryDx=0;entryDy=0;" edge="1" parent="1" source="oq4vCedvPrNpb1nhvZyE-140" target="oq4vCedvPrNpb1nhvZyE-144">
          <mxGeometry relative="1" as="geometry">
            <Array as="points">
              <mxPoint x="660" y="355" />
            </Array>
          </mxGeometry>
        </mxCell>
        <mxCell id="bfL3ahLss9JpZetgOzCO-8" style="edgeStyle=orthogonalEdgeStyle;rounded=0;orthogonalLoop=1;jettySize=auto;html=1;exitX=0;exitY=1;exitDx=0;exitDy=0;" edge="1" parent="1" source="oq4vCedvPrNpb1nhvZyE-140" target="bfL3ahLss9JpZetgOzCO-2">
          <mxGeometry relative="1" as="geometry">
            <Array as="points">
              <mxPoint x="660" y="375" />
            </Array>
          </mxGeometry>
        </mxCell>
        <mxCell id="oq4vCedvPrNpb1nhvZyE-140" value="Grupos Etnicos" style="rounded=0;whiteSpace=wrap;html=1;" vertex="1" parent="1">
          <mxGeometry x="660" y="270" width="100" height="30" as="geometry" />
        </mxCell>
        <mxCell id="oq4vCedvPrNpb1nhvZyE-141" value="Id_gender" style="rounded=1;whiteSpace=wrap;html=1;fontStyle=0;fontSize=7;" vertex="1" parent="1">
          <mxGeometry x="670" y="310" width="60" height="10" as="geometry" />
        </mxCell>
        <mxCell id="oq4vCedvPrNpb1nhvZyE-143" value="Id_name_shotter" style="rounded=1;whiteSpace=wrap;html=1;fontStyle=0;fontSize=7;" vertex="1" parent="1">
          <mxGeometry x="670" y="330" width="60" height="10" as="geometry" />
        </mxCell>
        <mxCell id="oq4vCedvPrNpb1nhvZyE-144" value="Age_of_shooter" style="rounded=1;whiteSpace=wrap;html=1;fontStyle=0;fontSize=7;" vertex="1" parent="1">
          <mxGeometry x="670" y="350" width="60" height="10" as="geometry" />
        </mxCell>
        <mxCell id="oq4vCedvPrNpb1nhvZyE-147" style="edgeStyle=orthogonalEdgeStyle;rounded=0;orthogonalLoop=1;jettySize=auto;html=1;exitX=0;exitY=1;exitDx=0;exitDy=0;entryX=0;entryY=0.5;entryDx=0;entryDy=0;" edge="1" parent="1" source="oq4vCedvPrNpb1nhvZyE-153" target="oq4vCedvPrNpb1nhvZyE-154">
          <mxGeometry relative="1" as="geometry">
            <Array as="points">
              <mxPoint x="430" y="565" />
            </Array>
          </mxGeometry>
        </mxCell>
        <mxCell id="oq4vCedvPrNpb1nhvZyE-148" style="edgeStyle=orthogonalEdgeStyle;rounded=0;orthogonalLoop=1;jettySize=auto;html=1;exitX=0;exitY=1;exitDx=0;exitDy=0;entryX=0;entryY=0.5;entryDx=0;entryDy=0;" edge="1" parent="1" source="oq4vCedvPrNpb1nhvZyE-153" target="oq4vCedvPrNpb1nhvZyE-155">
          <mxGeometry relative="1" as="geometry">
            <Array as="points">
              <mxPoint x="430" y="585" />
            </Array>
          </mxGeometry>
        </mxCell>
        <mxCell id="oq4vCedvPrNpb1nhvZyE-149" style="edgeStyle=orthogonalEdgeStyle;rounded=0;orthogonalLoop=1;jettySize=auto;html=1;exitX=0;exitY=1;exitDx=0;exitDy=0;entryX=0;entryY=0.5;entryDx=0;entryDy=0;" edge="1" parent="1" source="oq4vCedvPrNpb1nhvZyE-153" target="oq4vCedvPrNpb1nhvZyE-156">
          <mxGeometry relative="1" as="geometry">
            <Array as="points">
              <mxPoint x="430" y="625" />
            </Array>
          </mxGeometry>
        </mxCell>
        <mxCell id="oq4vCedvPrNpb1nhvZyE-150" style="edgeStyle=orthogonalEdgeStyle;rounded=0;orthogonalLoop=1;jettySize=auto;html=1;exitX=0;exitY=1;exitDx=0;exitDy=0;entryX=0;entryY=0.5;entryDx=0;entryDy=0;" edge="1" parent="1" source="oq4vCedvPrNpb1nhvZyE-153" target="oq4vCedvPrNpb1nhvZyE-157">
          <mxGeometry relative="1" as="geometry">
            <Array as="points">
              <mxPoint x="430" y="645" />
            </Array>
          </mxGeometry>
        </mxCell>
        <mxCell id="oq4vCedvPrNpb1nhvZyE-151" style="edgeStyle=orthogonalEdgeStyle;rounded=0;orthogonalLoop=1;jettySize=auto;html=1;exitX=0;exitY=1;exitDx=0;exitDy=0;entryX=0;entryY=0.5;entryDx=0;entryDy=0;" edge="1" parent="1" source="oq4vCedvPrNpb1nhvZyE-153" target="oq4vCedvPrNpb1nhvZyE-158">
          <mxGeometry relative="1" as="geometry">
            <Array as="points">
              <mxPoint x="430" y="665" />
            </Array>
          </mxGeometry>
        </mxCell>
        <mxCell id="3y7SdDX-_hFEHbhAXl97-3" style="edgeStyle=orthogonalEdgeStyle;rounded=0;orthogonalLoop=1;jettySize=auto;html=1;exitX=0;exitY=1;exitDx=0;exitDy=0;entryX=0;entryY=0.5;entryDx=0;entryDy=0;" edge="1" parent="1" source="oq4vCedvPrNpb1nhvZyE-153" target="3y7SdDX-_hFEHbhAXl97-1">
          <mxGeometry relative="1" as="geometry">
            <Array as="points">
              <mxPoint x="430" y="605" />
            </Array>
          </mxGeometry>
        </mxCell>
        <mxCell id="oq4vCedvPrNpb1nhvZyE-153" value="VICTIMAS" style="rounded=0;whiteSpace=wrap;html=1;" vertex="1" parent="1">
          <mxGeometry x="430" y="520" width="85" height="30" as="geometry" />
        </mxCell>
        <mxCell id="oq4vCedvPrNpb1nhvZyE-154" value="Id_type_of_shooting" style="rounded=1;whiteSpace=wrap;html=1;fontStyle=0;fontSize=7;" vertex="1" parent="1">
          <mxGeometry x="440" y="560" width="72.5" height="10" as="geometry" />
        </mxCell>
        <mxCell id="oq4vCedvPrNpb1nhvZyE-155" value="Id_Case" style="rounded=1;whiteSpace=wrap;html=1;fontStyle=0;fontSize=7;" vertex="1" parent="1">
          <mxGeometry x="440" y="580" width="60" height="10" as="geometry" />
        </mxCell>
        <mxCell id="oq4vCedvPrNpb1nhvZyE-156" value="Fatalities" style="rounded=1;whiteSpace=wrap;html=1;fontStyle=0;fontSize=7;" vertex="1" parent="1">
          <mxGeometry x="442.5" y="620" width="60" height="10" as="geometry" />
        </mxCell>
        <mxCell id="oq4vCedvPrNpb1nhvZyE-157" value="Injured" style="rounded=1;whiteSpace=wrap;html=1;fontStyle=0;fontSize=7;" vertex="1" parent="1">
          <mxGeometry x="442.5" y="640" width="60" height="10" as="geometry" />
        </mxCell>
        <mxCell id="oq4vCedvPrNpb1nhvZyE-158" value="Total_victims" style="rounded=1;whiteSpace=wrap;html=1;fontStyle=0;fontSize=7;" vertex="1" parent="1">
          <mxGeometry x="442.5" y="660" width="62.5" height="10" as="geometry" />
        </mxCell>
        <mxCell id="oq4vCedvPrNpb1nhvZyE-186" style="edgeStyle=entityRelationEdgeStyle;rounded=0;orthogonalLoop=1;jettySize=auto;html=1;exitX=1;exitY=0.5;exitDx=0;exitDy=0;" edge="1" parent="1" source="oq4vCedvPrNpb1nhvZyE-174" target="oq4vCedvPrNpb1nhvZyE-30">
          <mxGeometry relative="1" as="geometry" />
        </mxCell>
        <mxCell id="oq4vCedvPrNpb1nhvZyE-174" value="&lt;font style=&quot;font-size: 5px;&quot;&gt;Cuando se produjo&lt;/font&gt;" style="rhombus;whiteSpace=wrap;html=1;" vertex="1" parent="1">
          <mxGeometry x="280" y="10" width="50" height="50" as="geometry" />
        </mxCell>
        <mxCell id="oq4vCedvPrNpb1nhvZyE-187" style="edgeStyle=entityRelationEdgeStyle;rounded=0;orthogonalLoop=1;jettySize=auto;html=1;exitX=1;exitY=0.5;exitDx=0;exitDy=0;" edge="1" parent="1" source="oq4vCedvPrNpb1nhvZyE-177" target="oq4vCedvPrNpb1nhvZyE-91">
          <mxGeometry relative="1" as="geometry" />
        </mxCell>
        <mxCell id="oq4vCedvPrNpb1nhvZyE-177" value="&lt;font style=&quot;font-size: 6px;&quot;&gt;Quien Ataco?&lt;/font&gt;" style="rhombus;whiteSpace=wrap;html=1;" vertex="1" parent="1">
          <mxGeometry x="295" y="260" width="50" height="50" as="geometry" />
        </mxCell>
        <mxCell id="bfL3ahLss9JpZetgOzCO-1" style="edgeStyle=orthogonalEdgeStyle;rounded=0;orthogonalLoop=1;jettySize=auto;html=1;exitX=1;exitY=0.5;exitDx=0;exitDy=0;" edge="1" parent="1" source="oq4vCedvPrNpb1nhvZyE-178" target="oq4vCedvPrNpb1nhvZyE-153">
          <mxGeometry relative="1" as="geometry" />
        </mxCell>
        <mxCell id="oq4vCedvPrNpb1nhvZyE-178" value="&lt;font style=&quot;font-size: 6px;&quot;&gt;Tipo de ataque&lt;/font&gt;" style="rhombus;whiteSpace=wrap;html=1;" vertex="1" parent="1">
          <mxGeometry x="295" y="510" width="50" height="50" as="geometry" />
        </mxCell>
        <mxCell id="oq4vCedvPrNpb1nhvZyE-193" value="" style="edgeStyle=entityRelationEdgeStyle;rounded=0;orthogonalLoop=1;jettySize=auto;html=1;exitX=1;exitY=0.5;exitDx=0;exitDy=0;" edge="1" parent="1" source="oq4vCedvPrNpb1nhvZyE-91" target="oq4vCedvPrNpb1nhvZyE-192">
          <mxGeometry relative="1" as="geometry">
            <mxPoint x="505" y="245" as="sourcePoint" />
            <mxPoint x="660" y="245" as="targetPoint" />
          </mxGeometry>
        </mxCell>
        <mxCell id="oq4vCedvPrNpb1nhvZyE-192" value="&lt;font style=&quot;font-size: 6px;&quot;&gt;Pertenece a&lt;/font&gt;" style="rhombus;whiteSpace=wrap;html=1;" vertex="1" parent="1">
          <mxGeometry x="560" y="260" width="50" height="50" as="geometry" />
        </mxCell>
        <mxCell id="oq4vCedvPrNpb1nhvZyE-195" value="&lt;font style=&quot;font-size: 8px;&quot;&gt;1-1&lt;/font&gt;" style="text;html=1;strokeColor=none;fillColor=none;align=center;verticalAlign=middle;whiteSpace=wrap;rounded=0;" vertex="1" parent="1">
          <mxGeometry x="295" y="60" width="20" height="10" as="geometry" />
        </mxCell>
        <mxCell id="oq4vCedvPrNpb1nhvZyE-197" value="&lt;font style=&quot;font-size: 8px;&quot;&gt;1-1&lt;/font&gt;" style="text;html=1;strokeColor=none;fillColor=none;align=center;verticalAlign=middle;whiteSpace=wrap;rounded=0;" vertex="1" parent="1">
          <mxGeometry x="310" y="315" width="20" height="10" as="geometry" />
        </mxCell>
        <mxCell id="oq4vCedvPrNpb1nhvZyE-198" value="&lt;font style=&quot;font-size: 8px;&quot;&gt;1-1&lt;/font&gt;" style="text;html=1;strokeColor=none;fillColor=none;align=center;verticalAlign=middle;whiteSpace=wrap;rounded=0;" vertex="1" parent="1">
          <mxGeometry x="310" y="570" width="20" height="10" as="geometry" />
        </mxCell>
        <mxCell id="oq4vCedvPrNpb1nhvZyE-199" value="&lt;span style=&quot;font-size: 8px;&quot;&gt;1-N&lt;/span&gt;" style="text;html=1;strokeColor=none;fillColor=none;align=center;verticalAlign=middle;whiteSpace=wrap;rounded=0;" vertex="1" parent="1">
          <mxGeometry x="575" y="310" width="20" height="10" as="geometry" />
        </mxCell>
        <mxCell id="bfL3ahLss9JpZetgOzCO-2" value="Race" style="rounded=1;whiteSpace=wrap;html=1;fontStyle=0;fontSize=7;" vertex="1" parent="1">
          <mxGeometry x="670" y="370" width="60" height="10" as="geometry" />
        </mxCell>
        <mxCell id="3y7SdDX-_hFEHbhAXl97-1" value="Id_date" style="rounded=1;whiteSpace=wrap;html=1;fontStyle=0;fontSize=7;" vertex="1" parent="1">
          <mxGeometry x="440" y="600" width="60" height="10" as="geometry" />
        </mxCell>
        <mxCell id="wNgP6TOCzT_EryLEcdGj-2" value="Decade" style="rounded=1;whiteSpace=wrap;html=1;fontStyle=0;fontSize=8;" vertex="1" parent="1">
          <mxGeometry x="430" y="220" width="60" height="10" as="geometry" />
        </mxCell>
        <mxCell id="wNgP6TOCzT_EryLEcdGj-3" value="Month_number" style="rounded=1;whiteSpace=wrap;html=1;fontStyle=0;fontSize=8;" vertex="1" parent="1">
          <mxGeometry x="432.5" y="240" width="55" height="10" as="geometry" />
        </mxCell>
        <mxCell id="wNgP6TOCzT_EryLEcdGj-12" value="&lt;font style=&quot;font-size: 8px;&quot;&gt;Place&lt;/font&gt;" style="rounded=1;whiteSpace=wrap;html=1;" vertex="1" parent="1">
          <mxGeometry x="20.03" y="500" width="80" height="20" as="geometry" />
        </mxCell>
        <mxCell id="wNgP6TOCzT_EryLEcdGj-13" value="&lt;span style=&quot;font-size: 8px;&quot;&gt;CIty Extension&lt;/span&gt;" style="rounded=1;whiteSpace=wrap;html=1;" vertex="1" parent="1">
          <mxGeometry x="20" y="600" width="80.03" height="20" as="geometry" />
        </mxCell>
      </root>
    </mxGraphModel>
  </diagram>
</mxfile>
